<svg width="22" height="22" viewBox="0 0 22 22" fill="none" xmlns="http://www.w3.org/2000/svg">
<path opacity="0.5" d="M13 12C13 12.5304 12.7893 13.0391 12.4142 13.4142C12.0391 13.7893 11.5304 14 11 14C10.4696 14 9.96086 13.7893 9.58579 13.4142C9.21071 13.0391 9 12.5304 9 12C9 11.4696 9.21071 10.9609 9.58579 10.5858C9.96086 10.2107 10.4696 10 11 10C11.5304 10 12.0391 10.2107 12.4142 10.5858C12.7893 10.9609 13 11.4696 13 12Z" stroke="black" stroke-width="1.5"/>
<path d="M1.36465 11.958C0.984649 9.321 0.794649 8.002 1.33565 6.875C1.87565 5.748 3.02665 5.062 5.32765 3.692L6.71265 2.867C8.80065 1.622 9.84665 1 11.0006 1C12.1546 1 13.1996 1.622 15.2886 2.867L16.6736 3.692C18.9736 5.062 20.1246 5.748 20.6656 6.875C21.2056 8.002 21.0156 9.321 20.6356 11.958L20.3576 13.895C19.8706 17.283 19.6266 18.976 18.4516 19.988C17.2766 21 15.5536 21 12.1066 21H9.89465C6.44765 21 4.72465 21 3.54965 19.988C2.37465 18.976 2.13065 17.283 1.64365 13.895L1.36465 11.958Z" stroke="black" stroke-width="1.5"/>
</svg>
