<svg width="150" height="150" viewBox="0 0 150 150" fill="none" xmlns="http://www.w3.org/2000/svg">
<path d="M37.5 43.75H68.75C70.4076 43.75 71.9973 44.4085 73.1694 45.5806C74.3415 46.7527 75 48.3424 75 50C75 51.6576 74.3415 53.2473 73.1694 54.4194C71.9973 55.5915 70.4076 56.25 68.75 56.25H37.5C35.8424 56.25 34.2527 55.5915 33.0806 54.4194C31.9085 53.2473 31.25 51.6576 31.25 50C31.25 48.3424 31.9085 46.7527 33.0806 45.5806C34.2527 44.4085 35.8424 43.75 37.5 43.75ZM81.25 93.75H112.5C114.158 93.75 115.747 94.4085 116.919 95.5806C118.092 96.7527 118.75 98.3424 118.75 100C118.75 101.658 118.092 103.247 116.919 104.419C115.747 105.592 114.158 106.25 112.5 106.25H81.25C79.5924 106.25 78.0027 105.592 76.8306 104.419C75.6585 103.247 75 101.658 75 100C75 98.3424 75.6585 96.7527 76.8306 95.5806C78.0027 94.4085 79.5924 93.75 81.25 93.75ZM37.5 68.75H112.5C114.158 68.75 115.747 69.4085 116.919 70.5806C118.092 71.7527 118.75 73.3424 118.75 75C118.75 76.6576 118.092 78.2473 116.919 79.4194C115.747 80.5915 114.158 81.25 112.5 81.25H37.5C35.8424 81.25 34.2527 80.5915 33.0806 79.4194C31.9085 78.2473 31.25 76.6576 31.25 75C31.25 73.3424 31.9085 71.7527 33.0806 70.5806C34.2527 69.4085 35.8424 68.75 37.5 68.75Z" fill="black"/>
</svg>
