<svg width="24" height="24" viewBox="0 0 24 24" fill="none" xmlns="http://www.w3.org/2000/svg">
<path d="M4.00047 18C4.00047 16.9391 4.4219 15.9217 5.17205 15.1716C5.92219 14.4214 6.93961 14 8.00047 14H16.0005C17.0613 14 18.0788 14.4214 18.8289 15.1716C19.579 15.9217 20.0005 16.9391 20.0005 18C20.0005 18.5304 19.7898 19.0391 19.4147 19.4142C19.0396 19.7893 18.5309 20 18.0005 20H6.00047C5.47004 20 4.96133 19.7893 4.58626 19.4142C4.21119 19.0391 4.00047 18.5304 4.00047 18Z" stroke="black" stroke-width="2" stroke-linejoin="round"/>
<path d="M12.0005 10C13.6573 10 15.0005 8.65685 15.0005 7C15.0005 5.34315 13.6573 4 12.0005 4C10.3436 4 9.00049 5.34315 9.00049 7C9.00049 8.65685 10.3436 10 12.0005 10Z" stroke="black" stroke-width="2"/>
</svg>
